<svg xmlns="http://www.w3.org/2000/svg" viewBox="0 0 560 380" width="560" height="380" role="img" aria-label="Cycles per row at 1, 4 and 24 threads, split into searching, borrowing the buffer, and other">
<style>
  .surface { fill: #fcfcfb; }
  .ink1 { fill: #0b0b0b; } .ink2 { fill: #52514e; } .ink3 { fill: #8a8984; }
  .grid { stroke: #ebeae6; stroke-width: 1; }
  .axis { stroke: #8a8984; stroke-width: 1; }
  .ceiling { stroke: #8a8984; stroke-width: 1; stroke-dasharray: 4 4; fill: none; }
  .s1 { fill: #2a78d6; } .s1l { stroke: #2a78d6; }
  .s2 { fill: #eb6834; }
  .other { fill: #d6d5cf; }
  .area { fill: #2a78d6; fill-opacity: 0.18; }
  .gap { stroke: #fcfcfb; }
  .onfill { fill: #ffffff; }
  text { font-family: -apple-system, "Segoe UI", Inter, Helvetica, Arial, sans-serif; font-size: 13px; }
  .strong { font-weight: 600; }
  @media (prefers-color-scheme: dark) {
    .surface { fill: #1a1a19; }
    .ink1 { fill: #ffffff; } .ink2 { fill: #c3c2b7; } .ink3 { fill: #8f8e86; }
    .grid { stroke: #2c2c29; } .axis { stroke: #6f6e68; } .ceiling { stroke: #8f8e86; }
    .s1 { fill: #3987e5; } .s1l { stroke: #3987e5; }
    .s2 { fill: #d95926; }
    .other { fill: #4a4945; }
    .area { fill: #3987e5; fill-opacity: 0.26; }
    .gap { stroke: #1a1a19; }
  }
</style>
<rect class="surface" width="560" height="380"/><rect x="64" y="20" width="11" height="11" rx="2" class="s1"/><text x="82.0" y="30.0" class="ink2" text-anchor="start" >searching</text><rect x="174.60000000000002" y="20" width="11" height="11" rx="2" class="s2"/><text x="192.6" y="30.0" class="ink2" text-anchor="start" >borrowing the buffer</text><rect x="366.6" y="20" width="11" height="11" rx="2" class="other"/><text x="384.6" y="30.0" class="ink2" text-anchor="start" >other</text><line x1="64" x2="536" y1="332.0" y2="332.0" class="grid"/><text x="54.0" y="336.0" class="ink3" text-anchor="end" >0</text><line x1="64" x2="536" y1="265.0" y2="265.0" class="grid"/><text x="54.0" y="269.0" class="ink3" text-anchor="end" >200</text><line x1="64" x2="536" y1="198.0" y2="198.0" class="grid"/><text x="54.0" y="202.0" class="ink3" text-anchor="end" >400</text><line x1="64" x2="536" y1="131.0" y2="131.0" class="grid"/><text x="54.0" y="135.0" class="ink3" text-anchor="end" >600</text><line x1="64" x2="536" y1="64.0" y2="64.0" class="grid"/><text x="54.0" y="68.0" class="ink3" text-anchor="end" >800</text><text x="18.0" y="198.0" class="ink3" text-anchor="middle" transform="rotate(-90 18 198.0)">cycles per row</text><rect x="100.7" y="289.6" width="84" height="42.4" class="s1"><title>1 thread, searching: ~127 cycles per row</title></rect><text x="142.7" y="315.3" class="onfill strong" text-anchor="middle" >127</text><path d="M100.7,289.6 L100.7,255.4 Q100.7,251.4 104.7,251.4 L180.7,251.4 Q184.7,251.4 184.7,255.4 L184.7,289.6 Z" class="other"><title>1 thread, other: ~114 cycles per row</title></path><line x1="100.7" x2="184.7" y1="289.6" y2="289.6" class="gap" stroke-width="2"/><text x="142.7" y="354.0" class="ink2" text-anchor="middle" >1 thread</text><rect x="258.0" y="280.7" width="84" height="51.3" class="s1"><title>4 threads, searching: ~153 cycles per row</title></rect><text x="300.0" y="310.8" class="onfill strong" text-anchor="middle" >153</text><rect x="258.0" y="227.8" width="84" height="52.8" class="s2"><title>4 threads, borrowing the buffer: ~158 cycles per row</title></rect><line x1="258.0" x2="342.0" y1="280.7" y2="280.7" class="gap" stroke-width="2"/><text x="300.0" y="258.8" class="onfill strong" text-anchor="middle" >158</text><path d="M258.0,227.8 L258.0,174.0 Q258.0,170.0 262.0,170.0 L338.0,170.0 Q342.0,170.0 342.0,174.0 L342.0,227.8 Z" class="other"><title>4 threads, other: ~173 cycles per row</title></path><line x1="258.0" x2="342.0" y1="227.8" y2="227.8" class="gap" stroke-width="2"/><text x="300.0" y="354.0" class="ink2" text-anchor="middle" >4 threads</text><rect x="415.3" y="285.5" width="84" height="46.5" class="s1"><title>24 threads, searching: ~139 cycles per row</title></rect><text x="457.3" y="313.2" class="onfill strong" text-anchor="middle" >139</text><rect x="415.3" y="160.9" width="84" height="124.6" class="s2"><title>24 threads, borrowing the buffer: ~372 cycles per row</title></rect><line x1="415.3" x2="499.3" y1="285.5" y2="285.5" class="gap" stroke-width="2"/><text x="457.3" y="227.7" class="onfill strong" text-anchor="middle" >372</text><path d="M415.3,160.9 L415.3,77.5 Q415.3,73.5 419.3,73.5 L495.3,73.5 Q499.3,73.5 499.3,77.5 L499.3,160.9 Z" class="other"><title>24 threads, other: ~261 cycles per row</title></path><line x1="415.3" x2="499.3" y1="160.9" y2="160.9" class="gap" stroke-width="2"/><text x="457.3" y="354.0" class="ink2" text-anchor="middle" >24 threads</text><line x1="64" x2="536" y1="332" y2="332" class="axis"/></svg>
