<svg xmlns="http://www.w3.org/2000/svg" viewBox="0 0 580 260" width="580" height="260" role="img" aria-label="Speedup from 1 to 24 threads under glibc and jemalloc">
<style>
  .surface { fill: #fcfcfb; }
  .ink1 { fill: #0b0b0b; } .ink2 { fill: #52514e; } .ink3 { fill: #8a8984; }
  .grid { stroke: #ebeae6; stroke-width: 1; }
  .axis { stroke: #8a8984; stroke-width: 1; }
  .ceiling { stroke: #8a8984; stroke-width: 1; stroke-dasharray: 4 4; fill: none; }
  .s1 { fill: #2a78d6; } .s1l { stroke: #2a78d6; }
  .s2 { fill: #eb6834; }
  .other { fill: #d6d5cf; }
  .area { fill: #2a78d6; fill-opacity: 0.18; }
  .gap { stroke: #fcfcfb; }
  .onfill { fill: #ffffff; }
  text { font-family: -apple-system, "Segoe UI", Inter, Helvetica, Arial, sans-serif; font-size: 13px; }
  .strong { font-weight: 600; }
  @media (prefers-color-scheme: dark) {
    .surface { fill: #1a1a19; }
    .ink1 { fill: #ffffff; } .ink2 { fill: #c3c2b7; } .ink3 { fill: #8f8e86; }
    .grid { stroke: #2c2c29; } .axis { stroke: #6f6e68; } .ceiling { stroke: #8f8e86; }
    .s1 { fill: #3987e5; } .s1l { stroke: #3987e5; }
    .s2 { fill: #d95926; }
    .other { fill: #4a4945; }
    .area { fill: #3987e5; fill-opacity: 0.26; }
    .gap { stroke: #1a1a19; }
  }
</style>
<rect class="surface" width="580" height="260"/><rect x="172" y="20" width="11" height="11" rx="2" class="s2"/><text x="190.0" y="30.0" class="ink2" text-anchor="start" >glibc</text><rect x="253.0" y="20" width="11" height="11" rx="2" class="s1"/><text x="271.0" y="30.0" class="ink2" text-anchor="start" >jemalloc</text><line x1="172.0" x2="172.0" y1="52" y2="220" class="grid"/><text x="172.0" y="240.0" class="ink3" text-anchor="middle" >10×</text><line x1="279.4" x2="279.4" y1="52" y2="220" class="grid"/><text x="279.4" y="240.0" class="ink3" text-anchor="middle" >14×</text><line x1="386.9" x2="386.9" y1="52" y2="220" class="grid"/><text x="386.9" y="240.0" class="ink3" text-anchor="middle" >18×</text><line x1="494.3" x2="494.3" y1="52" y2="220" class="grid"/><text x="494.3" y="240.0" class="ink3" text-anchor="middle" >22×</text><line x1="548.0" x2="548.0" y1="52" y2="220" class="ceiling"/><text x="548.0" y="240.0" class="ink3" text-anchor="middle" >24×</text><text x="158.0" y="84.5" class="ink1" text-anchor="end" >two-key top-k</text><line x1="227.3" x2="453.2" y1="80.0" y2="80.0" class="axis" stroke-width="1.5"/><circle cx="227.3" cy="80.0" r="5.5" class="s2 gap" stroke-width="2"><title>two-key top-k: glibc 12.06×</title></circle><circle cx="453.2" cy="80.0" r="5.5" class="s1 gap" stroke-width="2"><title>two-key top-k: jemalloc 20.47×</title></circle><text x="158.0" y="124.5" class="ink1" text-anchor="end" >another two-key top-k</text><line x1="325.1" x2="445.7" y1="120.0" y2="120.0" class="axis" stroke-width="1.5"/><circle cx="325.1" cy="120.0" r="5.5" class="s2 gap" stroke-width="2"><title>another two-key top-k: glibc 15.7×</title></circle><circle cx="445.7" cy="120.0" r="5.5" class="s1 gap" stroke-width="2"><title>another two-key top-k: jemalloc 20.19×</title></circle><text x="158.0" y="164.5" class="ink1" text-anchor="end" >TPC-H q18</text><line x1="339.3" x2="435.7" y1="160.0" y2="160.0" class="axis" stroke-width="1.5"/><circle cx="339.3" cy="160.0" r="5.5" class="s2 gap" stroke-width="2"><title>TPC-H q18: glibc 16.23×</title></circle><circle cx="435.7" cy="160.0" r="5.5" class="s1 gap" stroke-width="2"><title>TPC-H q18: jemalloc 19.82×</title></circle><text x="158.0" y="204.5" class="ink1" text-anchor="end" >join</text><line x1="483.0" x2="489.5" y1="200.0" y2="200.0" class="axis" stroke-width="1.5"/><circle cx="483.0" cy="200.0" r="5.5" class="s2 gap" stroke-width="2"><title>join: glibc 21.58×</title></circle><circle cx="489.5" cy="200.0" r="5.5" class="s1 gap" stroke-width="2"><title>join: jemalloc 21.82×</title></circle><line x1="172" x2="548" y1="220" y2="220" class="axis"/></svg>
